<svg width="1920" height="724" viewBox="0 0 1920 724" fill="none" xmlns="http://www.w3.org/2000/svg">
<circle cx="959.5" cy="723.5" r="723.5" fill="url(#paint0_linear)"/>
<circle cx="959.5" cy="723.5" r="652.5" fill="url(#paint1_linear)"/>
<circle cx="959.5" cy="723.5" r="584.5" fill="url(#paint2_linear)"/>
<circle cx="959.5" cy="723.5" r="527.5" fill="#E3655B"/>
<rect x="1205" y="431" width="676" height="63" rx="31.5" fill="#0A2342" fill-opacity="0.1"/>
<rect x="1574" y="368" width="346" height="63" rx="31.5" fill="#0A2342" fill-opacity="0.1"/>
<rect x="1385" y="305" width="397" height="63" rx="31.5" fill="#0A2342" fill-opacity="0.1"/>
<rect x="51" y="463" width="484" height="63" rx="31.5" fill="#0A2342" fill-opacity="0.1"/>
<rect x="198" y="400" width="422" height="63" rx="31.5" fill="#0A2342" fill-opacity="0.1"/>
<path d="M1297.81 696.5L1126.53 724H1920V557L1855.08 510L1811.64 436L1686.8 368L1671.32 436L1612.9 510L1544.99 628L1517.02 656L1492.06 645L1411.66 656L1297.81 696.5Z" fill="#573B4C"/>
<path d="M710.075 696.5L922.299 724H0V557L37.4512 510L148.806 479L219.215 530.5L404.473 593.5L477.878 656L597.222 707.5L710.075 696.5Z" fill="#573B4C"/>
<path d="M367.587 590.19L508.306 707.462L561.388 724H-10L47.0887 658.849L146.243 622.264L207.338 563.629L293.973 508L330.029 527.545L367.587 590.19Z" fill="#0A2342"/>
<path d="M1543.41 707.462L1440.25 724H1920V590.19L1868.42 577.661L1779.28 508L1749.74 537.067L1708.17 563.629L1660.6 622.264L1641.07 658.849L1600.5 666.868L1543.41 707.462Z" fill="#0A2342"/>
<defs>
<linearGradient id="paint0_linear" x1="959.5" y1="0" x2="959.5" y2="1447" gradientUnits="userSpaceOnUse">
<stop stop-color="#573B4C"/>
<stop offset="0.500389" stop-color="#E3655B"/>
</linearGradient>
<linearGradient id="paint1_linear" x1="959.5" y1="71" x2="959.5" y2="1376" gradientUnits="userSpaceOnUse">
<stop stop-color="#7D4650"/>
<stop offset="0.506944" stop-color="#E3655B"/>
</linearGradient>
<linearGradient id="paint2_linear" x1="959.5" y1="139" x2="959.5" y2="1308" gradientUnits="userSpaceOnUse">
<stop stop-color="#AD5455"/>
<stop offset="0.506944" stop-color="#E3655B"/>
</linearGradient>
</defs>
</svg>
