<svg width="1920" height="356" viewBox="0 0 1920 356" fill="none" xmlns="http://www.w3.org/2000/svg">
<path d="M1297.81 328.5L1126.53 356H1920V189L1855.08 142L1811.64 68L1686.8 0L1671.32 68L1612.9 142L1544.99 260L1517.02 288L1492.06 277L1411.66 288L1297.81 328.5Z" fill="#573B4C"/>
<path d="M710.075 328.5L922.299 356H0V189L37.4512 142L148.806 111L219.215 162.5L404.473 225.5L477.878 288L597.222 339.5L710.075 328.5Z" fill="#573B4C"/>
<path d="M367.587 222.19L508.306 339.462L561.388 356H-10L47.0887 290.849L146.243 254.264L207.338 195.629L293.973 140L330.029 159.545L367.587 222.19Z" fill="#0A2342"/>
<path d="M1543.41 339.462L1440.25 356H1920V222.19L1868.42 209.661L1779.28 140L1749.74 169.067L1708.17 195.629L1660.6 254.264L1641.07 290.849L1600.5 298.868L1543.41 339.462Z" fill="#0A2342"/>
</svg>
