<svg width="300" height="300" viewBox="0 0 300 300" fill="none" xmlns="http://www.w3.org/2000/svg">
<path d="M38.52 0.012001H261.498C282.682 0.012001 300 17.336 300 38.52V261.498C300 282.676 282.682 299.988 261.498 299.988H38.52C17.336 299.988 0 282.675 0 261.498V38.52C0 17.336 17.336 0.012001 38.52 0.012001ZM218.546 33.329C211.108 33.329 205.041 39.42 205.041 46.854V79.168C205.041 86.605 211.108 92.682 218.546 92.682H252.449C259.875 92.682 265.955 86.605 265.955 79.168V46.854C265.955 39.42 259.875 33.329 252.449 33.329H218.546ZM266.084 126.868H239.688C242.191 135.043 243.548 143.664 243.548 152.627C243.548 202.509 201.782 242.967 150.282 242.967C98.795 242.967 57.028 202.509 57.028 152.627C57.028 143.664 58.398 135.043 60.889 126.868H33.35V253.6C33.35 260.163 38.709 265.502 45.266 265.502H254.173C260.736 265.502 266.084 260.163 266.084 253.6V126.868ZM150.283 90.978C117.023 90.978 90.043 117.106 90.043 149.366C90.043 181.593 117.023 207.741 150.283 207.741C183.561 207.741 210.542 181.593 210.542 149.366C210.542 117.105 183.561 90.978 150.283 90.978Z" fill="#F3BAB5"/>
</svg>
