<svg width="1514" height="149" viewBox="0 0 1514 149" fill="none" xmlns="http://www.w3.org/2000/svg">
<path d="M98.7899 144.01V148H0.929932V0.999987H95.6399V4.98999H5.12993V71.35H86.1899V75.34H5.12993V144.01H98.7899Z" fill="url(#paint0_linear)"/>
<path d="M141.203 0.999987H196.853C212.113 0.999987 225.553 4.14999 237.173 10.45C248.933 16.75 258.033 25.5 264.473 36.7C271.053 47.9 274.343 60.5 274.343 74.5C274.343 88.5 271.053 101.1 264.473 112.3C258.033 123.5 248.933 132.25 237.173 138.55C225.553 144.85 212.113 148 196.853 148H141.203V0.999987ZM196.433 144.01C211.133 144.01 224.013 141.07 235.073 135.19C246.273 129.17 254.883 120.91 260.903 110.41C267.063 99.77 270.143 87.8 270.143 74.5C270.143 61.2 267.063 49.3 260.903 38.8C254.883 28.16 246.273 19.9 235.073 14.02C224.013 7.99999 211.133 4.98999 196.433 4.98999H145.403V144.01H196.433Z" fill="url(#paint1_linear)"/>
<path d="M314.699 0.999987H370.349C385.609 0.999987 399.049 4.14999 410.669 10.45C422.429 16.75 431.529 25.5 437.969 36.7C444.549 47.9 447.839 60.5 447.839 74.5C447.839 88.5 444.549 101.1 437.969 112.3C431.529 123.5 422.429 132.25 410.669 138.55C399.049 144.85 385.609 148 370.349 148H314.699V0.999987ZM369.929 144.01C384.629 144.01 397.509 141.07 408.569 135.19C419.769 129.17 428.379 120.91 434.399 110.41C440.559 99.77 443.639 87.8 443.639 74.5C443.639 61.2 440.559 49.3 434.399 38.8C428.379 28.16 419.769 19.9 408.569 14.02C397.509 7.99999 384.629 4.98999 369.929 4.98999H318.899V144.01H369.929Z" fill="url(#paint2_linear)"/>
<path d="M524.106 148.63C513.466 148.63 503.456 146.74 494.076 142.96C484.696 139.04 477.486 134 472.446 127.84L475.386 125.11C480.146 130.71 486.936 135.4 495.756 139.18C504.576 142.82 513.956 144.64 523.896 144.64C539.156 144.64 550.636 141.63 558.336 135.61C566.176 129.45 570.096 121.54 570.096 111.88C570.096 104.32 568.066 98.3 564.006 93.82C559.946 89.34 554.906 85.98 548.886 83.74C543.006 81.5 535.026 79.19 524.946 76.81C514.166 74.15 505.626 71.63 499.326 69.25C493.026 66.73 487.636 62.95 483.156 57.91C478.816 52.73 476.646 45.87 476.646 37.33C476.646 30.61 478.396 24.45 481.896 18.85C485.396 13.25 490.856 8.76999 498.276 5.40999C505.696 2.04999 514.866 0.369995 525.786 0.369995C533.626 0.369995 541.326 1.62999 548.886 4.14998C556.446 6.52999 562.956 9.74999 568.416 13.81L566.106 17.17C560.366 12.97 553.926 9.81999 546.786 7.71999C539.786 5.47999 532.856 4.35999 525.996 4.35999C511.296 4.35999 500.096 7.50999 492.396 13.81C484.696 19.97 480.846 27.88 480.846 37.54C480.846 45.1 482.876 51.19 486.936 55.81C490.996 60.29 496.036 63.65 502.056 65.89C508.076 68.13 516.196 70.51 526.416 73.03C537.056 75.69 545.526 78.28 551.826 80.8C558.126 83.18 563.446 86.89 567.786 91.93C572.126 96.83 574.296 103.48 574.296 111.88C574.296 118.6 572.476 124.76 568.836 130.36C565.196 135.96 559.596 140.44 552.036 143.8C544.616 147.02 535.306 148.63 524.106 148.63Z" fill="url(#paint3_linear)"/>
<path d="M674.169 148.63C660.029 148.63 647.219 145.41 635.739 138.97C624.259 132.53 615.229 123.71 608.649 112.51C602.069 101.17 598.779 88.5 598.779 74.5C598.779 60.5 602.069 47.9 608.649 36.7C615.229 25.36 624.259 16.47 635.739 10.03C647.219 3.59 660.029 0.369995 674.169 0.369995C688.309 0.369995 701.119 3.59 712.599 10.03C724.079 16.47 733.109 25.36 739.689 36.7C746.269 47.9 749.559 60.5 749.559 74.5C749.559 88.5 746.269 101.17 739.689 112.51C733.109 123.71 724.079 132.53 712.599 138.97C701.119 145.41 688.309 148.63 674.169 148.63ZM674.169 144.64C687.469 144.64 699.509 141.63 710.289 135.61C721.209 129.45 729.749 121.05 735.909 110.41C742.209 99.63 745.359 87.66 745.359 74.5C745.359 61.34 742.209 49.44 735.909 38.8C729.749 28.02 721.209 19.62 710.289 13.6C699.509 7.43999 687.469 4.35999 674.169 4.35999C660.869 4.35999 648.759 7.43999 637.839 13.6C627.059 19.62 618.519 28.02 612.219 38.8C606.059 49.44 602.979 61.34 602.979 74.5C602.979 87.66 606.059 99.63 612.219 110.41C618.519 121.05 627.059 129.45 637.839 135.61C648.759 141.63 660.869 144.64 674.169 144.64Z" fill="url(#paint4_linear)"/>
<path d="M905.365 0.999987V148H901.795L794.065 8.76999V148H789.865V0.999987H793.435L901.165 140.23V0.999987H905.365Z" fill="url(#paint5_linear)"/>
<path d="M1023.26 148.63C1015.84 148.63 1008.84 146.81 1002.26 143.17C995.821 139.39 990.641 134.28 986.721 127.84L989.661 125.32C993.721 131.48 998.621 136.24 1004.36 139.6C1010.24 142.96 1016.61 144.64 1023.47 144.64C1034.25 144.64 1042.23 141.56 1047.41 135.4C1052.59 129.1 1055.18 119.58 1055.18 106.84V4.98999H1000.16V0.999987H1059.38V107.26C1059.38 134.84 1047.34 148.63 1023.26 148.63Z" fill="url(#paint6_linear)"/>
<path d="M1173.74 148.63C1159.6 148.63 1146.79 145.41 1135.31 138.97C1123.83 132.53 1114.8 123.71 1108.22 112.51C1101.64 101.17 1098.35 88.5 1098.35 74.5C1098.35 60.5 1101.64 47.9 1108.22 36.7C1114.8 25.36 1123.83 16.47 1135.31 10.03C1146.79 3.59 1159.6 0.369995 1173.74 0.369995C1187.88 0.369995 1200.69 3.59 1212.17 10.03C1223.65 16.47 1232.68 25.36 1239.26 36.7C1245.84 47.9 1249.13 60.5 1249.13 74.5C1249.13 88.5 1245.84 101.17 1239.26 112.51C1232.68 123.71 1223.65 132.53 1212.17 138.97C1200.69 145.41 1187.88 148.63 1173.74 148.63ZM1173.74 144.64C1187.04 144.64 1199.08 141.63 1209.86 135.61C1220.78 129.45 1229.32 121.05 1235.48 110.41C1241.78 99.63 1244.93 87.66 1244.93 74.5C1244.93 61.34 1241.78 49.44 1235.48 38.8C1229.32 28.02 1220.78 19.62 1209.86 13.6C1199.08 7.43999 1187.04 4.35999 1173.74 4.35999C1160.44 4.35999 1148.33 7.43999 1137.41 13.6C1126.63 19.62 1118.09 28.02 1111.79 38.8C1105.63 49.44 1102.55 61.34 1102.55 74.5C1102.55 87.66 1105.63 99.63 1111.79 110.41C1118.09 121.05 1126.63 129.45 1137.41 135.61C1148.33 141.63 1160.44 144.64 1173.74 144.64Z" fill="url(#paint7_linear)"/>
<path d="M1325.35 148.63C1314.71 148.63 1304.7 146.74 1295.32 142.96C1285.94 139.04 1278.73 134 1273.69 127.84L1276.63 125.11C1281.39 130.71 1288.18 135.4 1297 139.18C1305.82 142.82 1315.2 144.64 1325.14 144.64C1340.4 144.64 1351.88 141.63 1359.58 135.61C1367.42 129.45 1371.34 121.54 1371.34 111.88C1371.34 104.32 1369.31 98.3 1365.25 93.82C1361.19 89.34 1356.15 85.98 1350.13 83.74C1344.25 81.5 1336.27 79.19 1326.19 76.81C1315.41 74.15 1306.87 71.63 1300.57 69.25C1294.27 66.73 1288.88 62.95 1284.4 57.91C1280.06 52.73 1277.89 45.87 1277.89 37.33C1277.89 30.61 1279.64 24.45 1283.14 18.85C1286.64 13.25 1292.1 8.76999 1299.52 5.40999C1306.94 2.04999 1316.11 0.369995 1327.03 0.369995C1334.87 0.369995 1342.57 1.62999 1350.13 4.14998C1357.69 6.52999 1364.2 9.74999 1369.66 13.81L1367.35 17.17C1361.61 12.97 1355.17 9.81999 1348.03 7.71999C1341.03 5.47999 1334.1 4.35999 1327.24 4.35999C1312.54 4.35999 1301.34 7.50999 1293.64 13.81C1285.94 19.97 1282.09 27.88 1282.09 37.54C1282.09 45.1 1284.12 51.19 1288.18 55.81C1292.24 60.29 1297.28 63.65 1303.3 65.89C1309.32 68.13 1317.44 70.51 1327.66 73.03C1338.3 75.69 1346.77 78.28 1353.07 80.8C1359.37 83.18 1364.69 86.89 1369.03 91.93C1373.37 96.83 1375.54 103.48 1375.54 111.88C1375.54 118.6 1373.72 124.76 1370.08 130.36C1366.44 135.96 1360.84 140.44 1353.28 143.8C1345.86 147.02 1336.55 148.63 1325.35 148.63Z" fill="url(#paint8_linear)"/>
<path d="M1513.42 144.01V148H1415.56V0.999987H1510.27V4.98999H1419.76V71.35H1500.82V75.34H1419.76V144.01H1513.42Z" fill="url(#paint9_linear)"/>
<defs>
<linearGradient id="paint0_linear" x1="750.5" y1="-55" x2="750.5" y2="201" gradientUnits="userSpaceOnUse">
<stop offset="0.621527" stop-color="white"/>
<stop offset="1" stop-color="#E3655B"/>
</linearGradient>
<linearGradient id="paint1_linear" x1="750.5" y1="-55" x2="750.5" y2="201" gradientUnits="userSpaceOnUse">
<stop offset="0.621527" stop-color="white"/>
<stop offset="1" stop-color="#E3655B"/>
</linearGradient>
<linearGradient id="paint2_linear" x1="750.5" y1="-55" x2="750.5" y2="201" gradientUnits="userSpaceOnUse">
<stop offset="0.621527" stop-color="white"/>
<stop offset="1" stop-color="#E3655B"/>
</linearGradient>
<linearGradient id="paint3_linear" x1="750.5" y1="-55" x2="750.5" y2="201" gradientUnits="userSpaceOnUse">
<stop offset="0.621527" stop-color="white"/>
<stop offset="1" stop-color="#E3655B"/>
</linearGradient>
<linearGradient id="paint4_linear" x1="750.5" y1="-55" x2="750.5" y2="201" gradientUnits="userSpaceOnUse">
<stop offset="0.621527" stop-color="white"/>
<stop offset="1" stop-color="#E3655B"/>
</linearGradient>
<linearGradient id="paint5_linear" x1="750.5" y1="-55" x2="750.5" y2="201" gradientUnits="userSpaceOnUse">
<stop offset="0.621527" stop-color="white"/>
<stop offset="1" stop-color="#E3655B"/>
</linearGradient>
<linearGradient id="paint6_linear" x1="750.5" y1="-55" x2="750.5" y2="201" gradientUnits="userSpaceOnUse">
<stop offset="0.621527" stop-color="white"/>
<stop offset="1" stop-color="#E3655B"/>
</linearGradient>
<linearGradient id="paint7_linear" x1="750.5" y1="-55" x2="750.5" y2="201" gradientUnits="userSpaceOnUse">
<stop offset="0.621527" stop-color="white"/>
<stop offset="1" stop-color="#E3655B"/>
</linearGradient>
<linearGradient id="paint8_linear" x1="750.5" y1="-55" x2="750.5" y2="201" gradientUnits="userSpaceOnUse">
<stop offset="0.621527" stop-color="white"/>
<stop offset="1" stop-color="#E3655B"/>
</linearGradient>
<linearGradient id="paint9_linear" x1="750.5" y1="-55" x2="750.5" y2="201" gradientUnits="userSpaceOnUse">
<stop offset="0.621527" stop-color="white"/>
<stop offset="1" stop-color="#E3655B"/>
</linearGradient>
</defs>
</svg>
