<svg width="310" height="220" viewBox="0 0 310 220" fill="none" xmlns="http://www.w3.org/2000/svg">
<path d="M297.917 19.645C286.727 6.34299 266.067 0.916992 226.611 0.916992H83.386C43.027 0.916992 22.017 6.693 10.869 20.855C0 34.663 0 55.008 0 83.166V136.835C0 191.386 12.896 219.083 83.386 219.083H226.612C260.828 219.083 279.788 214.295 292.054 202.556C304.633 190.518 310 170.863 310 136.835V83.166C310 53.471 309.159 33.006 297.917 19.645ZM199.021 117.41L133.983 151.401C132.529 152.161 130.939 152.538 129.351 152.538C127.553 152.538 125.759 152.054 124.17 151.092C121.178 149.279 119.351 146.036 119.351 142.538V74.774C119.351 71.282 121.173 68.042 124.159 66.228C127.146 64.414 130.861 64.29 133.96 65.9L198.998 99.672C202.307 101.39 204.385 104.806 204.39 108.533C204.394 112.263 202.325 115.684 199.021 117.41Z" fill="#F3BAB5"/>
</svg>
